<svg width="26" height="26" viewBox="0 0 26 26" fill="none" xmlns="http://www.w3.org/2000/svg">
<path d="M26 20.0637C26 23.3441 23.3441 26 20.0637 26H5.93633C2.65586 26 0 23.3441 0 20.0637V5.94141C0 2.66094 2.66094 0 5.94141 0H19.9723C23.3035 0 26 2.69648 26 6.02773V20.0637Z" fill="url(#paint0_radial)"/>
<path d="M16.6156 3.58508H9.38438C6.18008 3.58508 3.58008 6.18508 3.58008 9.38938V16.6156C3.58008 19.8198 6.175 22.4148 9.38438 22.4148H16.6105C19.8148 22.4148 22.4098 19.8198 22.4098 16.6156V9.38938C22.4148 6.18 19.8199 3.58508 16.6156 3.58508ZM20.607 15.9198C20.607 18.5097 18.5098 20.607 15.9199 20.607H10.0801C7.49023 20.607 5.39297 18.5097 5.39297 15.9198V10.08C5.39297 7.49016 7.49023 5.3929 10.0801 5.3929H15.9199C18.5098 5.3929 20.607 7.49524 20.607 10.08V15.9198Z" fill="white"/>
<path d="M13.2539 8.07422C10.5117 8.07422 8.29257 10.2934 8.29257 13.0355C8.29257 15.7727 10.5117 17.9969 13.2539 17.9969C15.991 17.9969 18.2152 15.7777 18.2152 13.0355C18.2101 10.2934 15.991 8.07422 13.2539 8.07422ZM13.2539 16.0164C11.6035 16.0164 10.268 14.6809 10.268 13.0305C10.268 11.3801 11.6035 10.0445 13.2539 10.0445C14.8992 10.0445 16.2398 11.3801 16.2398 13.0305C16.2348 14.6809 14.8992 16.0164 13.2539 16.0164Z" fill="white"/>
<path d="M19.1293 7.99797C19.1293 8.69368 18.5656 9.25735 17.8699 9.25735C17.1742 9.25735 16.6105 8.69368 16.6105 7.99797C16.6105 7.30227 17.1742 6.73352 17.8699 6.73352C18.5656 6.73352 19.1293 7.29719 19.1293 7.99797Z" fill="white"/>
<defs>
<radialGradient id="paint0_radial" cx="0" cy="0" r="1" gradientUnits="userSpaceOnUse" gradientTransform="translate(7.61558 28.0129) scale(34.4539 34.4529)">
<stop offset="0.0969388" stop-color="#FFD87A"/>
<stop offset="0.1426" stop-color="#FCCE78"/>
<stop offset="0.2263" stop-color="#F5B471"/>
<stop offset="0.3378" stop-color="#EB8D65"/>
<stop offset="0.449" stop-color="#E36058"/>
<stop offset="0.6786" stop-color="#CD3694"/>
<stop offset="1" stop-color="#6668B0"/>
</radialGradient>
</defs>
</svg>
