<svg width="26" height="26" viewBox="0 0 26 26" fill="none" xmlns="http://www.w3.org/2000/svg">
<path d="M26 20.1652C26 23.3898 23.3848 26 20.1652 26H5.83477C2.61523 26 0 23.3848 0 20.1652V5.83477C0 2.61523 2.61523 0 5.83477 0H20.1652C23.3848 0 26 2.61523 26 5.83477V20.1652Z" fill="#5EBEE1"/>
<path d="M18.8618 7.04961L5.3134 12.3258C4.87668 12.4984 4.90207 13.1281 5.35402 13.2602L8.79699 14.2758L10.0818 18.3535C10.2138 18.7801 10.7571 18.907 11.0669 18.5871L12.8493 16.7691L16.3431 19.3336C16.7696 19.6484 17.379 19.4148 17.4857 18.8969L19.7962 7.83672C19.913 7.29843 19.3798 6.84648 18.8618 7.04961ZM17.1657 9.50234L10.8739 15.068C10.813 15.1238 10.7724 15.2 10.7622 15.2812L10.5185 17.4344C10.5083 17.5055 10.4118 17.5156 10.3915 17.4445L9.39621 14.2301C9.35051 14.0828 9.41145 13.9254 9.54348 13.8441L16.9728 9.2332C17.1404 9.13672 17.3181 9.37031 17.1657 9.50234Z" fill="white"/>
</svg>
