<svg width="26" height="26" viewBox="0 0 26 26" fill="none" xmlns="http://www.w3.org/2000/svg">
<path d="M26 20.1652C26 23.3898 23.3848 26 20.1652 26H5.83477C2.61523 26 0 23.3848 0 20.1652V5.83477C0 2.61523 2.61523 0 5.83477 0H20.1652C23.3848 0 26 2.61523 26 5.83477V20.1652Z" fill="#678AAF"/>
<path d="M12.8223 17.743H13.8227C13.8227 17.743 14.1273 17.7074 14.2797 17.5449C14.4219 17.3926 14.4168 17.1031 14.4168 17.1031C14.4168 17.1031 14.3965 15.7574 15.0211 15.5594C15.6355 15.3613 16.4277 16.8594 17.2656 17.4332C17.9004 17.8699 18.3828 17.7735 18.3828 17.7735L20.6223 17.743C20.6223 17.743 21.7953 17.6719 21.2367 16.7477C21.191 16.6715 20.9117 16.0672 19.5711 14.8231C18.1695 13.5231 18.3574 13.7313 20.0484 11.4766C21.0793 10.1055 21.4906 9.2676 21.3637 8.90705C21.2418 8.56682 20.4852 8.65822 20.4852 8.65822L17.9613 8.67346C17.9613 8.67346 17.7734 8.64807 17.6363 8.72932C17.4992 8.81057 17.4129 8.99846 17.4129 8.99846C17.4129 8.99846 17.0117 10.0598 16.4785 10.9637C15.3563 12.8731 14.9094 12.9695 14.7215 12.8528C14.2949 12.5735 14.4016 11.7457 14.4016 11.1516C14.4016 9.30314 14.6809 8.53635 13.8531 8.33322C13.5789 8.26721 13.3758 8.2215 12.675 8.21643C11.7762 8.20627 11.0145 8.2215 10.5828 8.42971C10.2984 8.57189 10.075 8.88166 10.207 8.90197C10.3746 8.92228 10.7504 9.00353 10.9535 9.27775C11.2125 9.62814 11.2023 10.4203 11.2023 10.4203C11.2023 10.4203 11.3496 12.5938 10.857 12.868C10.5168 13.0559 10.0496 12.675 9.04922 10.9434C8.53633 10.0598 8.1504 9.07971 8.1504 9.07971C8.1504 9.07971 8.07422 8.89689 7.94219 8.80041C7.77969 8.68361 7.55625 8.64299 7.55625 8.64299L5.15938 8.65822C5.15938 8.65822 4.79883 8.66838 4.6668 8.8258C4.55001 8.96291 4.65665 9.25236 4.65665 9.25236C4.65665 9.25236 6.53047 13.6399 8.65821 15.8539C10.6082 17.875 12.8223 17.743 12.8223 17.743Z" fill="white"/>
</svg>
