<svg width="26" height="26" viewBox="0 0 26 26" fill="none" xmlns="http://www.w3.org/2000/svg">
<path d="M26 20.1652C26 23.3898 23.3848 26 20.1652 26H5.83477C2.61523 26 0 23.3848 0 20.1652V5.83477C0 2.61016 2.61523 0 5.83477 0H20.1652C23.3848 0 26 2.61016 26 5.83477V20.1652Z" fill="#EF3F38"/>
<path d="M11.7609 5.86523H10.9535L10.4051 7.9625L9.83632 5.86523H8.99335C9.16093 6.35781 9.33866 6.86055 9.50624 7.35313C9.76522 8.09961 9.92264 8.66328 9.99374 9.04414V11.2074H10.7961V9.04414L11.7609 5.86523ZM13.9039 9.92266V8.52617C13.9039 8.09961 13.8328 7.78984 13.6805 7.58672C13.4824 7.3125 13.198 7.18047 12.8375 7.18047C12.4769 7.18047 12.1976 7.31758 11.9945 7.58672C11.8422 7.78984 11.7711 8.09961 11.7711 8.52617V9.92266C11.7711 10.3441 11.8422 10.659 11.9945 10.8621C12.1926 11.1312 12.4769 11.2684 12.8375 11.2684C13.198 11.2684 13.4773 11.1312 13.6805 10.8621C13.8277 10.659 13.9039 10.3441 13.9039 9.92266ZM13.1777 10.0547C13.1777 10.4254 13.066 10.6082 12.8324 10.6082C12.5988 10.6082 12.4871 10.4254 12.4871 10.0547V8.37891C12.4871 8.0082 12.5988 7.82539 12.8324 7.82539C13.066 7.82539 13.1777 8.0082 13.1777 8.37891V10.0547ZM16.5699 11.2074V7.22617H15.8488V10.273C15.6863 10.4965 15.5391 10.6133 15.3918 10.6133C15.2953 10.6133 15.2394 10.5574 15.2242 10.4457C15.214 10.4203 15.2141 10.334 15.2141 10.1664V7.23125H14.493V10.3797C14.493 10.659 14.5183 10.852 14.559 10.9738C14.6301 11.177 14.7926 11.2684 15.0262 11.2684C15.2902 11.2684 15.5644 11.1059 15.8488 10.7809V11.2125H16.5699V11.2074Z" fill="white"/>
<path d="M14.3101 15.2241C14.1933 15.2241 14.0714 15.28 13.9547 15.3968V17.7987C14.0714 17.9155 14.1933 17.9714 14.3101 17.9714C14.5132 17.9714 14.6199 17.7987 14.6199 17.4382V15.7573C14.6199 15.4069 14.5132 15.2241 14.3101 15.2241Z" fill="white"/>
<path d="M16.9609 15.2241C16.7223 15.2241 16.6055 15.4069 16.6055 15.7726V16.1382H17.3164V15.7726C17.3164 15.4069 17.1945 15.2241 16.9609 15.2241Z" fill="white"/>
<path d="M18.7027 13.2233C18.5605 12.5937 18.0426 12.1315 17.423 12.0604C15.9555 11.8979 14.4726 11.8979 13 11.8979C11.5223 11.8979 10.0394 11.8979 8.57694 12.0604C7.95741 12.1265 7.44452 12.5937 7.29725 13.2233C7.08905 14.1222 7.08905 15.0972 7.08905 16.0163C7.08905 16.9354 7.08905 17.9155 7.29725 18.8093C7.43944 19.439 7.95741 19.9011 8.57186 19.9722C10.0394 20.1347 11.5223 20.1347 13 20.1347C14.4777 20.1347 15.9605 20.1347 17.4281 19.9722C18.0476 19.9011 18.5605 19.439 18.7078 18.8093C18.916 17.9155 18.916 16.9354 18.916 16.0163C18.9109 15.0921 18.9109 14.1171 18.7027 13.2233ZM10.4609 14.0257H9.60272V18.5706H8.80546V14.0257H7.97264V13.2792H10.4609V14.0257ZM12.6191 18.5706H11.9031V18.139C11.6187 18.464 11.3496 18.6214 11.0855 18.6214C10.857 18.6214 10.6945 18.53 10.6234 18.3269C10.5828 18.205 10.5625 18.0171 10.5625 17.7429V14.6249H11.2785V17.5296C11.2785 17.6972 11.2785 17.7835 11.2836 17.8089C11.2988 17.9206 11.3547 17.9765 11.4512 17.9765C11.5933 17.9765 11.7457 17.8647 11.9031 17.6413V14.63H12.6191V18.5706ZM15.3359 17.3874C15.3359 17.753 15.3105 18.012 15.2648 18.1796C15.1683 18.4741 14.9805 18.6214 14.691 18.6214C14.4371 18.6214 14.1933 18.4792 13.9547 18.1847V18.5655H13.2387V13.2792H13.9547V15.0058C14.1832 14.7214 14.432 14.5792 14.691 14.5792C14.9754 14.5792 15.1683 14.7265 15.2648 15.0261C15.3105 15.1835 15.3359 15.4476 15.3359 15.8183V17.3874ZM18.0273 16.7323H16.6004V17.428C16.6004 17.7937 16.7172 17.9765 16.966 17.9765C17.1387 17.9765 17.2453 17.88 17.2859 17.6921C17.291 17.6515 17.3012 17.494 17.3012 17.2097H18.0273V17.3112C18.0273 17.5397 18.0172 17.6972 18.0121 17.7733C17.9867 17.9308 17.9308 18.0729 17.8445 18.1999C17.6465 18.4843 17.3519 18.6265 16.9812 18.6265C16.6055 18.6265 16.3211 18.4894 16.118 18.2253C15.9656 18.0272 15.8894 17.7175 15.8894 17.3011V15.9198C15.8894 15.4983 15.9555 15.1886 16.1078 14.9905C16.316 14.7214 16.6004 14.5894 16.966 14.5894C17.3215 14.5894 17.6058 14.7214 17.809 14.9905C17.9562 15.1886 18.0324 15.4983 18.0324 15.9198V16.7323H18.0273Z" fill="white"/>
</svg>
